<svg width="8" height="12" viewBox="0 0 8 12" fill="none" xmlns="http://www.w3.org/2000/svg">
<path d="M0.294987 6.60147C0.201592 6.52306 0.127396 6.42948 0.0767427 6.3262C0.0260902 6.22293 5.14743e-07 6.11203 5.24537e-07 6C5.3433e-07 5.88797 0.0260902 5.77707 0.0767427 5.67379C0.127396 5.57052 0.201592 5.47693 0.294987 5.39853L6.31223 0.243103C6.49906 0.0862368 6.75059 -0.00112068 7.01217 1.13577e-05C7.27375 0.00114339 7.52424 0.0906744 7.7092 0.249148C7.89417 0.407623 7.99867 0.622236 7.99999 0.846351C8.00131 1.07046 7.89935 1.28597 7.71626 1.44604L2.42108 6L7.71626 10.554C7.89935 10.714 8.00131 10.9295 7.99999 11.1537C7.99867 11.3778 7.89417 11.5924 7.7092 11.7509C7.52424 11.9093 7.27375 11.9989 7.01217 12C6.75059 12.0011 6.49906 11.9138 6.31223 11.7569L0.294987 6.60147Z" fill="#EBE7DB"/>
</svg>
