<svg xmlns="http://www.w3.org/2000/svg" width="54" height="67" viewBox="0 0 54 67" fill="none">
<path d="M8.50312 67C7.38647 67 6.28076 66.7821 5.24912 66.3586C4.21747 65.9352 3.28009 65.3146 2.49051 64.5322C1.70092 63.7498 1.07458 62.8209 0.647262 61.7987C0.219941 60.7764 0 59.6808 0 58.5743V8.42459C0.000202118 6.88954 0.423617 5.3837 1.22452 4.0697C2.02542 2.75571 3.17337 1.68348 4.54441 0.96882C5.91544 0.254158 7.45746 -0.0757822 9.00393 0.0146292C10.5504 0.105041 12.0426 0.612368 13.3193 1.48182L50.3147 26.5533C51.4511 27.3276 52.3804 28.3643 53.0225 29.5738C53.6645 30.7833 54 32.1294 54 33.4961C54 34.8627 53.6645 36.2088 53.0225 37.4184C52.3804 38.6279 51.4511 39.6645 50.3147 40.4389L13.3159 65.5171C11.8997 66.482 10.2218 66.999 8.50312 67ZM8.50312 3.3557C7.67232 3.35949 6.85502 3.56427 6.12225 3.95224C5.29592 4.37576 4.60421 5.0179 4.12389 5.80737C3.64356 6.59685 3.39343 7.50278 3.40125 8.42459V58.5709C3.40182 59.4919 3.65627 60.3952 4.13713 61.1833C4.61799 61.9715 5.30698 62.6145 6.12971 63.0429C6.95245 63.4713 7.87766 63.6689 8.80546 63.6144C9.73326 63.5598 10.6284 63.2551 11.3942 62.7332L48.3896 37.6584C49.0707 37.1937 49.6277 36.5718 50.0125 35.8465C50.3972 35.1211 50.5983 34.3139 50.5983 33.4944C50.5983 32.6749 50.3972 31.8677 50.0125 31.1423C49.6277 30.417 49.0707 29.7951 48.3896 29.3304L11.3976 4.26567C10.5502 3.67957 9.54327 3.36224 8.50992 3.3557H8.50312Z" fill="#62AE8A"/>
</svg>